<mxfile host="65bd71144e">
    <diagram id="fGNLQK7dubjZFK9gdIF3" name="Page-1">
        <mxGraphModel dx="3483" dy="2351" grid="1" gridSize="10" guides="1" tooltips="1" connect="1" arrows="1" fold="1" page="1" pageScale="1" pageWidth="850" pageHeight="1100" math="0" shadow="0">
            <root>
                <mxCell id="0"/>
                <mxCell id="1" parent="0"/>
                <mxCell id="87" style="edgeStyle=none;html=1;exitX=0;exitY=0;exitDx=0;exitDy=0;" edge="1" parent="1" source="2" target="65">
                    <mxGeometry relative="1" as="geometry"/>
                </mxCell>
                <mxCell id="2" value="&lt;font size=&quot;3&quot; face=&quot;Comic Sans MS&quot;&gt;Students Collection&lt;/font&gt;" style="rounded=1;whiteSpace=wrap;html=1;" parent="1" vertex="1">
                    <mxGeometry x="-600" y="150" width="120" height="60" as="geometry"/>
                </mxCell>
                <mxCell id="88" style="edgeStyle=none;html=1;exitX=0;exitY=0.85;exitDx=0;exitDy=0;exitPerimeter=0;" edge="1" parent="1" source="3" target="65">
                    <mxGeometry relative="1" as="geometry"/>
                </mxCell>
                <mxCell id="3" value="" style="strokeWidth=2;html=1;shape=mxgraph.flowchart.database;whiteSpace=wrap;fillColor=#1AF816;" parent="1" vertex="1">
                    <mxGeometry x="-550" y="-60" width="60" height="80" as="geometry"/>
                </mxCell>
                <mxCell id="6" value="&lt;font face=&quot;Comic Sans MS&quot; style=&quot;font-size: 14px;&quot;&gt;Main Database&lt;/font&gt;" style="text;html=1;align=center;verticalAlign=middle;resizable=0;points=[];autosize=1;strokeColor=#081D0A;fillColor=#0A1D09;" parent="1" vertex="1">
                    <mxGeometry x="-130" y="20" width="120" height="30" as="geometry"/>
                </mxCell>
                <mxCell id="8" value="Table" style="shape=table;startSize=30;container=1;collapsible=1;childLayout=tableLayout;fixedRows=1;rowLines=0;fontStyle=1;align=center;resizeLast=1;strokeColor=#081D0A;fontFamily=Comic Sans MS;fontSize=14;fillColor=#1AF816;" parent="1" vertex="1">
                    <mxGeometry x="-320" y="20" width="1560" height="542" as="geometry"/>
                </mxCell>
                <mxCell id="9" value="" style="shape=tableRow;horizontal=0;startSize=0;swimlaneHead=0;swimlaneBody=0;fillColor=none;collapsible=0;dropTarget=0;points=[[0,0.5],[1,0.5]];portConstraint=eastwest;top=0;left=0;right=0;bottom=1;strokeColor=#081D0A;fontFamily=Comic Sans MS;fontSize=14;" parent="8" vertex="1">
                    <mxGeometry y="30" width="1560" height="28" as="geometry"/>
                </mxCell>
                <mxCell id="10" value="No" style="shape=partialRectangle;connectable=0;fillColor=none;top=0;left=0;bottom=0;right=0;fontStyle=1;overflow=hidden;strokeColor=#081D0A;fontFamily=Comic Sans MS;fontSize=14;" parent="9" vertex="1">
                    <mxGeometry width="30" height="28" as="geometry">
                        <mxRectangle width="30" height="28" as="alternateBounds"/>
                    </mxGeometry>
                </mxCell>
                <mxCell id="11" value="UniqueID(_id)   Enroll  Password   Username  email         PhoneNumber    sec   fullname  address   brach   ac_year  Gender  DOB         Profile_pic        ParentName       ParentContact     Current_address" style="shape=partialRectangle;connectable=0;fillColor=none;top=0;left=0;bottom=0;right=0;align=left;spacingLeft=6;fontStyle=5;overflow=hidden;strokeColor=#081D0A;fontFamily=Comic Sans MS;fontSize=14;" parent="9" vertex="1">
                    <mxGeometry x="30" width="1530" height="28" as="geometry">
                        <mxRectangle width="1530" height="28" as="alternateBounds"/>
                    </mxGeometry>
                </mxCell>
                <mxCell id="12" value="" style="shape=tableRow;horizontal=0;startSize=0;swimlaneHead=0;swimlaneBody=0;fillColor=none;collapsible=0;dropTarget=0;points=[[0,0.5],[1,0.5]];portConstraint=eastwest;top=0;left=0;right=0;bottom=0;strokeColor=#081D0A;fontFamily=Comic Sans MS;fontSize=14;" parent="8" vertex="1">
                    <mxGeometry y="58" width="1560" height="30" as="geometry"/>
                </mxCell>
                <mxCell id="13" value="1" style="shape=partialRectangle;connectable=0;fillColor=none;top=0;left=0;bottom=0;right=0;editable=1;overflow=hidden;strokeColor=#081D0A;fontFamily=Comic Sans MS;fontSize=14;" parent="12" vertex="1">
                    <mxGeometry width="30" height="30" as="geometry">
                        <mxRectangle width="30" height="30" as="alternateBounds"/>
                    </mxGeometry>
                </mxCell>
                <mxCell id="14" value="AG                      1234     ertedff       Rudra      xcx@gmail.com 987685316626                             B      RS            XYZ          B.TECH   1st          M            19/01/2004   image.jpg              www                      9087653534455     ABC  " style="shape=partialRectangle;connectable=0;fillColor=none;top=0;left=0;bottom=0;right=0;align=left;spacingLeft=6;overflow=hidden;strokeColor=#081D0A;fontFamily=Comic Sans MS;fontSize=14;" parent="12" vertex="1">
                    <mxGeometry x="30" width="1530" height="30" as="geometry">
                        <mxRectangle width="1530" height="30" as="alternateBounds"/>
                    </mxGeometry>
                </mxCell>
                <mxCell id="15" value="" style="shape=tableRow;horizontal=0;startSize=0;swimlaneHead=0;swimlaneBody=0;fillColor=none;collapsible=0;dropTarget=0;points=[[0,0.5],[1,0.5]];portConstraint=eastwest;top=0;left=0;right=0;bottom=0;strokeColor=#081D0A;fontFamily=Comic Sans MS;fontSize=14;" parent="8" vertex="1">
                    <mxGeometry y="88" width="1560" height="60" as="geometry"/>
                </mxCell>
                <mxCell id="16" value="2" style="shape=partialRectangle;connectable=0;fillColor=none;top=0;left=0;bottom=0;right=0;editable=1;overflow=hidden;strokeColor=#081D0A;fontFamily=Comic Sans MS;fontSize=14;" parent="15" vertex="1">
                    <mxGeometry width="30" height="60" as="geometry">
                        <mxRectangle width="30" height="60" as="alternateBounds"/>
                    </mxGeometry>
                </mxCell>
                <mxCell id="17" value="AG                      1234     ertedff       Rudra      xcx@gmail.com 987685316626                             B      RS            XYZ          B.TECH   1st          M            19/01/2004   image.jpg              www                      9087653534455     ABC  " style="shape=partialRectangle;connectable=0;fillColor=none;top=0;left=0;bottom=0;right=0;align=left;spacingLeft=6;overflow=hidden;strokeColor=#081D0A;fontFamily=Comic Sans MS;fontSize=14;" parent="15" vertex="1">
                    <mxGeometry x="30" width="1530" height="60" as="geometry">
                        <mxRectangle width="1530" height="60" as="alternateBounds"/>
                    </mxGeometry>
                </mxCell>
                <mxCell id="18" value="" style="shape=tableRow;horizontal=0;startSize=0;swimlaneHead=0;swimlaneBody=0;fillColor=none;collapsible=0;dropTarget=0;points=[[0,0.5],[1,0.5]];portConstraint=eastwest;top=0;left=0;right=0;bottom=0;strokeColor=#081D0A;fontFamily=Comic Sans MS;fontSize=14;" parent="8" vertex="1">
                    <mxGeometry y="148" width="1560" height="42" as="geometry"/>
                </mxCell>
                <mxCell id="19" value="3" style="shape=partialRectangle;connectable=0;fillColor=none;top=0;left=0;bottom=0;right=0;editable=1;overflow=hidden;strokeColor=#081D0A;fontFamily=Comic Sans MS;fontSize=14;" parent="18" vertex="1">
                    <mxGeometry width="30" height="42" as="geometry">
                        <mxRectangle width="30" height="42" as="alternateBounds"/>
                    </mxGeometry>
                </mxCell>
                <mxCell id="20" value="AG                      1234     ertedff       Rudra      xcx@gmail.com 987685316626                             B      RS            XYZ          B.TECH   1st          M            19/01/2004   image.jpg              www                      9087653534455     ABC  " style="shape=partialRectangle;connectable=0;fillColor=none;top=0;left=0;bottom=0;right=0;align=left;spacingLeft=6;overflow=hidden;strokeColor=#081D0A;fontFamily=Comic Sans MS;fontSize=14;" parent="18" vertex="1">
                    <mxGeometry x="30" width="1530" height="42" as="geometry">
                        <mxRectangle width="1530" height="42" as="alternateBounds"/>
                    </mxGeometry>
                </mxCell>
                <mxCell id="21" value="" style="shape=tableRow;horizontal=0;startSize=0;swimlaneHead=0;swimlaneBody=0;fillColor=none;collapsible=0;dropTarget=0;points=[[0,0.5],[1,0.5]];portConstraint=eastwest;top=0;left=0;right=0;bottom=0;strokeColor=#081D0A;fontFamily=Comic Sans MS;fontSize=14;" parent="8" vertex="1">
                    <mxGeometry y="190" width="1560" height="32" as="geometry"/>
                </mxCell>
                <mxCell id="22" value="" style="shape=partialRectangle;connectable=0;fillColor=none;top=0;left=0;bottom=0;right=0;editable=1;overflow=hidden;strokeColor=#081D0A;fontFamily=Comic Sans MS;fontSize=14;" parent="21" vertex="1">
                    <mxGeometry width="30" height="32" as="geometry">
                        <mxRectangle width="30" height="32" as="alternateBounds"/>
                    </mxGeometry>
                </mxCell>
                <mxCell id="23" value="" style="shape=partialRectangle;connectable=0;fillColor=none;top=0;left=0;bottom=0;right=0;align=left;spacingLeft=6;overflow=hidden;strokeColor=#081D0A;fontFamily=Comic Sans MS;fontSize=14;" parent="21" vertex="1">
                    <mxGeometry x="30" width="1530" height="32" as="geometry">
                        <mxRectangle width="1530" height="32" as="alternateBounds"/>
                    </mxGeometry>
                </mxCell>
                <mxCell id="27" value="" style="shape=tableRow;horizontal=0;startSize=0;swimlaneHead=0;swimlaneBody=0;fillColor=none;collapsible=0;dropTarget=0;points=[[0,0.5],[1,0.5]];portConstraint=eastwest;top=0;left=0;right=0;bottom=0;strokeColor=#081D0A;fontFamily=Comic Sans MS;fontSize=14;" parent="8" vertex="1">
                    <mxGeometry y="222" width="1560" height="20" as="geometry"/>
                </mxCell>
                <mxCell id="28" value="" style="shape=partialRectangle;connectable=0;fillColor=none;top=0;left=0;bottom=0;right=0;editable=1;overflow=hidden;strokeColor=#081D0A;fontFamily=Comic Sans MS;fontSize=14;" parent="27" vertex="1">
                    <mxGeometry width="30" height="20" as="geometry">
                        <mxRectangle width="30" height="20" as="alternateBounds"/>
                    </mxGeometry>
                </mxCell>
                <mxCell id="29" value="" style="shape=partialRectangle;connectable=0;fillColor=none;top=0;left=0;bottom=0;right=0;align=left;spacingLeft=6;overflow=hidden;strokeColor=#081D0A;fontFamily=Comic Sans MS;fontSize=14;" parent="27" vertex="1">
                    <mxGeometry x="30" width="1530" height="20" as="geometry">
                        <mxRectangle width="1530" height="20" as="alternateBounds"/>
                    </mxGeometry>
                </mxCell>
                <mxCell id="30" value="" style="shape=tableRow;horizontal=0;startSize=0;swimlaneHead=0;swimlaneBody=0;fillColor=none;collapsible=0;dropTarget=0;points=[[0,0.5],[1,0.5]];portConstraint=eastwest;top=0;left=0;right=0;bottom=0;strokeColor=#081D0A;fontFamily=Comic Sans MS;fontSize=14;" parent="8" vertex="1">
                    <mxGeometry y="242" width="1560" height="30" as="geometry"/>
                </mxCell>
                <mxCell id="31" value="" style="shape=partialRectangle;connectable=0;fillColor=none;top=0;left=0;bottom=0;right=0;editable=1;overflow=hidden;strokeColor=#081D0A;fontFamily=Comic Sans MS;fontSize=14;" parent="30" vertex="1">
                    <mxGeometry width="30" height="30" as="geometry">
                        <mxRectangle width="30" height="30" as="alternateBounds"/>
                    </mxGeometry>
                </mxCell>
                <mxCell id="32" value="" style="shape=partialRectangle;connectable=0;fillColor=none;top=0;left=0;bottom=0;right=0;align=left;spacingLeft=6;overflow=hidden;strokeColor=#081D0A;fontFamily=Comic Sans MS;fontSize=14;" parent="30" vertex="1">
                    <mxGeometry x="30" width="1530" height="30" as="geometry">
                        <mxRectangle width="1530" height="30" as="alternateBounds"/>
                    </mxGeometry>
                </mxCell>
                <mxCell id="33" value="" style="shape=tableRow;horizontal=0;startSize=0;swimlaneHead=0;swimlaneBody=0;fillColor=none;collapsible=0;dropTarget=0;points=[[0,0.5],[1,0.5]];portConstraint=eastwest;top=0;left=0;right=0;bottom=0;strokeColor=#081D0A;fontFamily=Comic Sans MS;fontSize=14;" parent="8" vertex="1">
                    <mxGeometry y="272" width="1560" height="30" as="geometry"/>
                </mxCell>
                <mxCell id="34" value="" style="shape=partialRectangle;connectable=0;fillColor=none;top=0;left=0;bottom=0;right=0;editable=1;overflow=hidden;strokeColor=#081D0A;fontFamily=Comic Sans MS;fontSize=14;" parent="33" vertex="1">
                    <mxGeometry width="30" height="30" as="geometry">
                        <mxRectangle width="30" height="30" as="alternateBounds"/>
                    </mxGeometry>
                </mxCell>
                <mxCell id="35" value="" style="shape=partialRectangle;connectable=0;fillColor=none;top=0;left=0;bottom=0;right=0;align=left;spacingLeft=6;overflow=hidden;strokeColor=#081D0A;fontFamily=Comic Sans MS;fontSize=14;" parent="33" vertex="1">
                    <mxGeometry x="30" width="1530" height="30" as="geometry">
                        <mxRectangle width="1530" height="30" as="alternateBounds"/>
                    </mxGeometry>
                </mxCell>
                <mxCell id="36" value="" style="shape=tableRow;horizontal=0;startSize=0;swimlaneHead=0;swimlaneBody=0;fillColor=none;collapsible=0;dropTarget=0;points=[[0,0.5],[1,0.5]];portConstraint=eastwest;top=0;left=0;right=0;bottom=0;strokeColor=#081D0A;fontFamily=Comic Sans MS;fontSize=14;" parent="8" vertex="1">
                    <mxGeometry y="302" width="1560" height="30" as="geometry"/>
                </mxCell>
                <mxCell id="37" value="" style="shape=partialRectangle;connectable=0;fillColor=none;top=0;left=0;bottom=0;right=0;editable=1;overflow=hidden;strokeColor=#081D0A;fontFamily=Comic Sans MS;fontSize=14;" parent="36" vertex="1">
                    <mxGeometry width="30" height="30" as="geometry">
                        <mxRectangle width="30" height="30" as="alternateBounds"/>
                    </mxGeometry>
                </mxCell>
                <mxCell id="38" value="" style="shape=partialRectangle;connectable=0;fillColor=none;top=0;left=0;bottom=0;right=0;align=left;spacingLeft=6;overflow=hidden;strokeColor=#081D0A;fontFamily=Comic Sans MS;fontSize=14;" parent="36" vertex="1">
                    <mxGeometry x="30" width="1530" height="30" as="geometry">
                        <mxRectangle width="1530" height="30" as="alternateBounds"/>
                    </mxGeometry>
                </mxCell>
                <mxCell id="39" value="" style="shape=tableRow;horizontal=0;startSize=0;swimlaneHead=0;swimlaneBody=0;fillColor=none;collapsible=0;dropTarget=0;points=[[0,0.5],[1,0.5]];portConstraint=eastwest;top=0;left=0;right=0;bottom=0;strokeColor=#081D0A;fontFamily=Comic Sans MS;fontSize=14;" parent="8" vertex="1">
                    <mxGeometry y="332" width="1560" height="30" as="geometry"/>
                </mxCell>
                <mxCell id="40" value="" style="shape=partialRectangle;connectable=0;fillColor=none;top=0;left=0;bottom=0;right=0;editable=1;overflow=hidden;strokeColor=#081D0A;fontFamily=Comic Sans MS;fontSize=14;" parent="39" vertex="1">
                    <mxGeometry width="30" height="30" as="geometry">
                        <mxRectangle width="30" height="30" as="alternateBounds"/>
                    </mxGeometry>
                </mxCell>
                <mxCell id="41" value="" style="shape=partialRectangle;connectable=0;fillColor=none;top=0;left=0;bottom=0;right=0;align=left;spacingLeft=6;overflow=hidden;strokeColor=#081D0A;fontFamily=Comic Sans MS;fontSize=14;" parent="39" vertex="1">
                    <mxGeometry x="30" width="1530" height="30" as="geometry">
                        <mxRectangle width="1530" height="30" as="alternateBounds"/>
                    </mxGeometry>
                </mxCell>
                <mxCell id="42" value="" style="shape=tableRow;horizontal=0;startSize=0;swimlaneHead=0;swimlaneBody=0;fillColor=none;collapsible=0;dropTarget=0;points=[[0,0.5],[1,0.5]];portConstraint=eastwest;top=0;left=0;right=0;bottom=0;strokeColor=#081D0A;fontFamily=Comic Sans MS;fontSize=14;" parent="8" vertex="1">
                    <mxGeometry y="362" width="1560" height="30" as="geometry"/>
                </mxCell>
                <mxCell id="43" value="" style="shape=partialRectangle;connectable=0;fillColor=none;top=0;left=0;bottom=0;right=0;editable=1;overflow=hidden;strokeColor=#081D0A;fontFamily=Comic Sans MS;fontSize=14;" parent="42" vertex="1">
                    <mxGeometry width="30" height="30" as="geometry">
                        <mxRectangle width="30" height="30" as="alternateBounds"/>
                    </mxGeometry>
                </mxCell>
                <mxCell id="44" value="" style="shape=partialRectangle;connectable=0;fillColor=none;top=0;left=0;bottom=0;right=0;align=left;spacingLeft=6;overflow=hidden;strokeColor=#081D0A;fontFamily=Comic Sans MS;fontSize=14;" parent="42" vertex="1">
                    <mxGeometry x="30" width="1530" height="30" as="geometry">
                        <mxRectangle width="1530" height="30" as="alternateBounds"/>
                    </mxGeometry>
                </mxCell>
                <mxCell id="45" value="" style="shape=tableRow;horizontal=0;startSize=0;swimlaneHead=0;swimlaneBody=0;fillColor=none;collapsible=0;dropTarget=0;points=[[0,0.5],[1,0.5]];portConstraint=eastwest;top=0;left=0;right=0;bottom=0;strokeColor=#081D0A;fontFamily=Comic Sans MS;fontSize=14;" parent="8" vertex="1">
                    <mxGeometry y="392" width="1560" height="30" as="geometry"/>
                </mxCell>
                <mxCell id="46" value="" style="shape=partialRectangle;connectable=0;fillColor=none;top=0;left=0;bottom=0;right=0;editable=1;overflow=hidden;strokeColor=#081D0A;fontFamily=Comic Sans MS;fontSize=14;" parent="45" vertex="1">
                    <mxGeometry width="30" height="30" as="geometry">
                        <mxRectangle width="30" height="30" as="alternateBounds"/>
                    </mxGeometry>
                </mxCell>
                <mxCell id="47" value="" style="shape=partialRectangle;connectable=0;fillColor=none;top=0;left=0;bottom=0;right=0;align=left;spacingLeft=6;overflow=hidden;strokeColor=#081D0A;fontFamily=Comic Sans MS;fontSize=14;" parent="45" vertex="1">
                    <mxGeometry x="30" width="1530" height="30" as="geometry">
                        <mxRectangle width="1530" height="30" as="alternateBounds"/>
                    </mxGeometry>
                </mxCell>
                <mxCell id="48" value="" style="shape=tableRow;horizontal=0;startSize=0;swimlaneHead=0;swimlaneBody=0;fillColor=none;collapsible=0;dropTarget=0;points=[[0,0.5],[1,0.5]];portConstraint=eastwest;top=0;left=0;right=0;bottom=0;strokeColor=#081D0A;fontFamily=Comic Sans MS;fontSize=14;" parent="8" vertex="1">
                    <mxGeometry y="422" width="1560" height="30" as="geometry"/>
                </mxCell>
                <mxCell id="49" value="" style="shape=partialRectangle;connectable=0;fillColor=none;top=0;left=0;bottom=0;right=0;editable=1;overflow=hidden;strokeColor=#081D0A;fontFamily=Comic Sans MS;fontSize=14;" parent="48" vertex="1">
                    <mxGeometry width="30" height="30" as="geometry">
                        <mxRectangle width="30" height="30" as="alternateBounds"/>
                    </mxGeometry>
                </mxCell>
                <mxCell id="50" value="" style="shape=partialRectangle;connectable=0;fillColor=none;top=0;left=0;bottom=0;right=0;align=left;spacingLeft=6;overflow=hidden;strokeColor=#081D0A;fontFamily=Comic Sans MS;fontSize=14;" parent="48" vertex="1">
                    <mxGeometry x="30" width="1530" height="30" as="geometry">
                        <mxRectangle width="1530" height="30" as="alternateBounds"/>
                    </mxGeometry>
                </mxCell>
                <mxCell id="51" value="" style="shape=tableRow;horizontal=0;startSize=0;swimlaneHead=0;swimlaneBody=0;fillColor=none;collapsible=0;dropTarget=0;points=[[0,0.5],[1,0.5]];portConstraint=eastwest;top=0;left=0;right=0;bottom=0;strokeColor=#081D0A;fontFamily=Comic Sans MS;fontSize=14;" parent="8" vertex="1">
                    <mxGeometry y="452" width="1560" height="30" as="geometry"/>
                </mxCell>
                <mxCell id="52" value="" style="shape=partialRectangle;connectable=0;fillColor=none;top=0;left=0;bottom=0;right=0;editable=1;overflow=hidden;strokeColor=#081D0A;fontFamily=Comic Sans MS;fontSize=14;" parent="51" vertex="1">
                    <mxGeometry width="30" height="30" as="geometry">
                        <mxRectangle width="30" height="30" as="alternateBounds"/>
                    </mxGeometry>
                </mxCell>
                <mxCell id="53" value="" style="shape=partialRectangle;connectable=0;fillColor=none;top=0;left=0;bottom=0;right=0;align=left;spacingLeft=6;overflow=hidden;strokeColor=#081D0A;fontFamily=Comic Sans MS;fontSize=14;" parent="51" vertex="1">
                    <mxGeometry x="30" width="1530" height="30" as="geometry">
                        <mxRectangle width="1530" height="30" as="alternateBounds"/>
                    </mxGeometry>
                </mxCell>
                <mxCell id="54" value="" style="shape=tableRow;horizontal=0;startSize=0;swimlaneHead=0;swimlaneBody=0;fillColor=none;collapsible=0;dropTarget=0;points=[[0,0.5],[1,0.5]];portConstraint=eastwest;top=0;left=0;right=0;bottom=0;strokeColor=#081D0A;fontFamily=Comic Sans MS;fontSize=14;" parent="8" vertex="1">
                    <mxGeometry y="482" width="1560" height="30" as="geometry"/>
                </mxCell>
                <mxCell id="55" value="" style="shape=partialRectangle;connectable=0;fillColor=none;top=0;left=0;bottom=0;right=0;editable=1;overflow=hidden;strokeColor=#081D0A;fontFamily=Comic Sans MS;fontSize=14;" parent="54" vertex="1">
                    <mxGeometry width="30" height="30" as="geometry">
                        <mxRectangle width="30" height="30" as="alternateBounds"/>
                    </mxGeometry>
                </mxCell>
                <mxCell id="56" value="" style="shape=partialRectangle;connectable=0;fillColor=none;top=0;left=0;bottom=0;right=0;align=left;spacingLeft=6;overflow=hidden;strokeColor=#081D0A;fontFamily=Comic Sans MS;fontSize=14;" parent="54" vertex="1">
                    <mxGeometry x="30" width="1530" height="30" as="geometry">
                        <mxRectangle width="1530" height="30" as="alternateBounds"/>
                    </mxGeometry>
                </mxCell>
                <mxCell id="58" value="" style="shape=tableRow;horizontal=0;startSize=0;swimlaneHead=0;swimlaneBody=0;fillColor=none;collapsible=0;dropTarget=0;points=[[0,0.5],[1,0.5]];portConstraint=eastwest;top=0;left=0;right=0;bottom=0;strokeColor=#081D0A;fontFamily=Comic Sans MS;fontSize=14;" parent="8" vertex="1">
                    <mxGeometry y="512" width="1560" height="30" as="geometry"/>
                </mxCell>
                <mxCell id="59" value="" style="shape=partialRectangle;connectable=0;fillColor=none;top=0;left=0;bottom=0;right=0;editable=1;overflow=hidden;strokeColor=#081D0A;fontFamily=Comic Sans MS;fontSize=14;" parent="58" vertex="1">
                    <mxGeometry width="30" height="30" as="geometry">
                        <mxRectangle width="30" height="30" as="alternateBounds"/>
                    </mxGeometry>
                </mxCell>
                <mxCell id="60" value="" style="shape=partialRectangle;connectable=0;fillColor=none;top=0;left=0;bottom=0;right=0;align=left;spacingLeft=6;overflow=hidden;strokeColor=#081D0A;fontFamily=Comic Sans MS;fontSize=14;" parent="58" vertex="1">
                    <mxGeometry x="30" width="1530" height="30" as="geometry">
                        <mxRectangle width="1530" height="30" as="alternateBounds"/>
                    </mxGeometry>
                </mxCell>
                <mxCell id="64" value="Main dB" style="text;html=1;align=center;verticalAlign=middle;resizable=0;points=[];autosize=1;strokeColor=none;fillColor=none;fontSize=14;fontFamily=Comic Sans MS;" parent="1" vertex="1">
                    <mxGeometry x="-630" y="-110" width="80" height="30" as="geometry"/>
                </mxCell>
                <mxCell id="65" value="" style="dashed=0;outlineConnect=0;html=1;align=center;labelPosition=center;verticalLabelPosition=bottom;verticalAlign=top;shape=mxgraph.weblogos.json;strokeColor=#081D0A;fontFamily=Comic Sans MS;fontSize=14;fillColor=#1AF816;" parent="1" vertex="1">
                    <mxGeometry x="-690" y="40" width="70" height="75.8" as="geometry"/>
                </mxCell>
                <mxCell id="70" style="edgeStyle=none;html=1;exitX=0;exitY=0.5;exitDx=0;exitDy=0;fontFamily=Comic Sans MS;fontSize=14;entryX=1;entryY=0.5;entryDx=0;entryDy=0;" parent="1" source="9" edge="1" target="2">
                    <mxGeometry relative="1" as="geometry">
                        <mxPoint x="-380" y="63.5" as="targetPoint"/>
                    </mxGeometry>
                </mxCell>
                <mxCell id="71" value="" style="points=[];aspect=fixed;html=1;align=center;shadow=0;dashed=0;image;image=img/lib/allied_telesis/storage/Datacenter_Server_Half_Rack_ToR.svg;strokeColor=#081D0A;fontFamily=Comic Sans MS;fontSize=14;fillColor=#1AF816;" parent="1" vertex="1">
                    <mxGeometry x="-310" y="-290" width="100.05" height="130" as="geometry"/>
                </mxCell>
                <mxCell id="73" value="" style="shape=flexArrow;endArrow=classic;html=1;fontFamily=Comic Sans MS;fontSize=14;endWidth=33.33333333333333;endSize=4.857142857142857;" parent="1" edge="1">
                    <mxGeometry width="50" height="50" relative="1" as="geometry">
                        <mxPoint x="-510" y="-70" as="sourcePoint"/>
                        <mxPoint x="-320" y="-190" as="targetPoint"/>
                        <Array as="points">
                            <mxPoint x="-490" y="-80"/>
                            <mxPoint x="-510" y="-70"/>
                        </Array>
                    </mxGeometry>
                </mxCell>
                <mxCell id="75" value="" style="shape=flexArrow;endArrow=classic;html=1;fontFamily=Comic Sans MS;fontSize=14;exitX=0.056;exitY=1.026;exitDx=0;exitDy=0;exitPerimeter=0;" parent="1" source="71" edge="1">
                    <mxGeometry width="50" height="50" relative="1" as="geometry">
                        <mxPoint x="-350" y="-110" as="sourcePoint"/>
                        <mxPoint x="-480" y="-50" as="targetPoint"/>
                    </mxGeometry>
                </mxCell>
                <mxCell id="76" value="&lt;h2&gt;Req&lt;/h2&gt;" style="rounded=1;whiteSpace=wrap;html=1;strokeColor=#081D0A;fontFamily=Comic Sans MS;fontSize=14;fillColor=#333333;" parent="1" vertex="1">
                    <mxGeometry x="-380" y="-90" width="120" height="60" as="geometry"/>
                </mxCell>
                <mxCell id="77" value="&lt;h2&gt;Res&lt;/h2&gt;" style="rounded=1;whiteSpace=wrap;html=1;strokeColor=#081D0A;fontFamily=Comic Sans MS;fontSize=14;fillColor=#333333;" parent="1" vertex="1">
                    <mxGeometry x="-545" y="-210" width="120" height="60" as="geometry"/>
                </mxCell>
                <mxCell id="86" value="" style="edgeStyle=none;html=1;fontFamily=Comic Sans MS;fontSize=14;" parent="1" source="80" target="85" edge="1">
                    <mxGeometry relative="1" as="geometry"/>
                </mxCell>
                <mxCell id="80" value="&lt;span style=&quot;background-color: rgb(24, 20, 29);&quot;&gt;Students Dashboard Route&lt;/span&gt;" style="text;html=1;align=center;verticalAlign=middle;resizable=0;points=[];autosize=1;strokeColor=none;fillColor=none;fontSize=14;fontFamily=Comic Sans MS;" parent="1" vertex="1">
                    <mxGeometry x="90" y="-240" width="200" height="30" as="geometry"/>
                </mxCell>
                <mxCell id="81" value="" style="shape=flexArrow;endArrow=classic;html=1;fontFamily=Comic Sans MS;fontSize=14;" parent="1" edge="1">
                    <mxGeometry width="50" height="50" relative="1" as="geometry">
                        <mxPoint x="-140" y="-240" as="sourcePoint"/>
                        <mxPoint x="-50" y="-240" as="targetPoint"/>
                    </mxGeometry>
                </mxCell>
                <mxCell id="82" value="" style="shape=flexArrow;endArrow=classic;html=1;fontFamily=Comic Sans MS;fontSize=14;" parent="1" edge="1">
                    <mxGeometry width="50" height="50" relative="1" as="geometry">
                        <mxPoint x="-50" y="-210.95" as="sourcePoint"/>
                        <mxPoint x="-140" y="-210.95" as="targetPoint"/>
                    </mxGeometry>
                </mxCell>
                <mxCell id="83" value="Res" style="text;html=1;align=center;verticalAlign=middle;resizable=0;points=[];autosize=1;strokeColor=none;fillColor=none;fontSize=14;fontFamily=Comic Sans MS;" parent="1" vertex="1">
                    <mxGeometry x="-145" y="-285" width="50" height="30" as="geometry"/>
                </mxCell>
                <mxCell id="84" value="Req" style="text;html=1;align=center;verticalAlign=middle;resizable=0;points=[];autosize=1;strokeColor=none;fillColor=none;fontSize=14;fontFamily=Comic Sans MS;" parent="1" vertex="1">
                    <mxGeometry x="-130" y="-195" width="50" height="30" as="geometry"/>
                </mxCell>
                <mxCell id="85" value="" style="dashed=0;outlineConnect=0;html=1;align=center;labelPosition=center;verticalLabelPosition=bottom;verticalAlign=top;shape=mxgraph.webicons.json;gradientColor=#DFDEDE;strokeColor=#081D0A;fontFamily=Comic Sans MS;fontSize=14;" parent="1" vertex="1">
                    <mxGeometry x="-10" y="-265" width="60" height="80" as="geometry"/>
                </mxCell>
            </root>
        </mxGraphModel>
    </diagram>
</mxfile>